<svg width="171" height="48" viewBox="0 0 171 48" fill="none" xmlns="http://www.w3.org/2000/svg">
<path fill-rule="evenodd" clip-rule="evenodd" d="M140.295 23.7009C141.013 26.7609 142.061 28.2909 143.378 28.2909C144.485 28.2909 145.832 27.7209 147.388 26.5509L150.021 24.6009C150.65 24.8409 150.979 25.2909 150.979 25.9509C150.979 26.0709 150.919 26.3409 150.799 26.7909C150.65 27.2709 150.59 27.5409 150.59 27.5709V27.6609C150.59 27.9309 150.56 28.2609 150.53 28.7409C150.051 29.9109 149.393 31.6509 148.585 34.0209C148.315 34.3209 147.807 35.2809 147.029 36.9609C147.059 36.9609 147.059 36.9309 147.059 36.9309V36.9609C147.059 36.9909 146.789 37.7709 146.221 39.2709C145.921 40.0809 145.502 41.1609 144.964 42.4509C144.904 42.7809 144.784 43.3509 144.635 44.1609C144.605 44.3109 144.485 44.6709 144.245 45.2709C144.036 45.7509 143.946 46.1109 143.946 46.3809C143.946 46.4709 143.976 46.5609 144.006 46.6209C143.826 46.9509 143.467 47.3409 142.959 47.8509H142.3C142.001 47.3109 141.851 46.8909 141.851 46.6509C141.851 45.6609 142.51 43.5009 143.797 40.1709C144.305 38.8509 144.934 37.3209 145.682 35.5809C145.921 35.1309 146.34 34.3209 146.879 33.1209C147.059 32.5509 147.268 32.0109 147.478 31.5909C147.657 31.2909 147.986 30.5109 148.435 29.1909C148.405 29.1609 148.405 29.1009 148.405 29.0409C148.405 28.9509 148.435 28.8009 148.465 28.6509C148.495 28.5609 148.495 28.5009 148.495 28.4709C148.495 28.3809 148.465 28.3209 148.405 28.3209C148.315 28.3209 147.717 28.5309 146.64 28.9809C145.532 29.4309 144.964 29.6409 144.904 29.6409C144.694 29.6409 144.186 29.7009 143.408 29.8209C142.629 29.9409 142.151 30.0009 142.061 30.0009C141.253 30.0009 140.535 29.3409 139.876 28.0509C139.308 26.9109 139.008 25.8909 139.008 24.9309C139.008 24.6609 139.158 24.2409 139.427 23.7009H140.295ZM53.5683 9.99094C56.8303 9.99094 59.4339 11.0709 61.3492 13.2609C63.2944 15.4509 64.2521 18.5109 64.2521 22.4109L64.2221 22.8609H46.9247C46.9845 25.0809 47.7028 26.8809 49.0794 28.2309C50.456 29.5809 52.1019 30.2709 54.0172 30.2709C56.6508 30.2709 58.7157 28.9209 60.212 26.1909L63.893 28.0509C62.9054 29.9709 61.5288 31.4709 59.793 32.5509C58.0274 33.6009 56.0522 34.1709 53.8377 34.1709C50.6056 34.1709 47.9422 33.0309 45.8473 30.7509C43.7525 28.4709 42.705 25.5609 42.705 22.0809C42.705 18.6309 43.7225 15.7209 45.7575 13.4409C47.7925 11.1309 50.3961 9.99094 53.5683 9.99094ZM71.0155 0.210938V10.6809L70.8359 13.8309H71.0155C71.7337 12.6609 72.7512 11.7009 74.0979 11.0109C75.4146 10.2909 76.911 9.93094 78.527 9.93094C81.4299 9.93094 83.8838 11.1009 85.8889 13.4709C87.9538 15.8409 88.9713 18.7209 88.9713 22.0509C88.9713 25.4109 87.9239 28.2909 85.8889 30.6309C83.8838 32.9709 81.4299 34.1709 78.527 34.1709C76.911 34.1709 75.4446 33.8109 74.0979 33.0909C72.7512 32.3709 71.7337 31.4409 71.0155 30.2709H70.8359V33.4209H66.8856V0.210938H71.0155ZM9.30712 9.93094C11.2523 9.93094 13.018 10.4109 14.5742 11.3709C16.1304 12.3309 17.2376 13.6209 17.8661 15.2109L14.1851 16.8009C13.7662 15.8409 13.0779 15.0909 12.1501 14.5509C11.1925 14.0109 10.1451 13.7409 8.97793 13.7409C7.90058 13.7409 6.94293 14.0109 6.07507 14.5809C5.23713 15.1509 4.78823 15.8109 4.78823 16.6209C4.78823 17.9109 5.95536 18.8409 8.34948 19.4109L11.6713 20.2809C16.1004 21.3909 18.2851 23.6709 18.2851 27.0909C18.2851 29.0709 17.4471 30.7509 15.7712 32.1009C14.0954 33.4509 11.9706 34.1409 9.42683 34.1409C7.21227 34.1409 5.26705 33.5409 3.59117 32.3409C1.91529 31.1409 0.718235 29.5809 0 27.6309L3.68095 26.0109C4.21963 27.3609 4.99772 28.4409 6.04514 29.1909C7.06264 29.9409 8.19985 30.3309 9.42683 30.3309C10.7436 30.3309 11.8509 30.0309 12.7187 29.4609C13.5866 28.8609 14.0355 28.1709 14.0355 27.3609C14.0355 25.9209 12.9582 24.8409 10.8034 24.1509L7.03271 23.1909C2.75323 22.0809 0.598529 19.9509 0.598529 16.8009C0.598529 14.7309 1.40654 13.0809 3.0525 11.8209C4.69845 10.5609 6.76338 9.93094 9.30712 9.93094ZM99.9842 9.93094C103.037 9.93094 105.431 10.7709 107.226 12.4509C108.992 14.1309 109.89 16.4409 109.89 19.3809V33.3909H105.94V30.2409H105.76C104.054 32.8509 101.78 34.1409 98.9368 34.1409C96.5128 34.1409 94.4778 33.3909 92.8618 31.9209C91.2158 30.4509 90.4078 28.5909 90.4078 26.3409C90.4078 24.0009 91.2757 22.1109 92.9815 20.7309C94.6873 19.3509 96.9916 18.6309 99.8645 18.6309C102.319 18.6309 104.324 19.0809 105.94 20.0109V19.0509C105.94 17.5809 105.371 16.3209 104.234 15.2709C103.097 14.2209 101.75 13.7109 100.224 13.7109C97.9193 13.7109 96.0938 14.7309 94.7471 16.7409L91.0961 14.3709C93.1012 11.4309 96.0639 9.93094 99.9842 9.93094ZM24.8689 0.210938V10.6809L24.6893 13.8309H24.8689C25.4973 12.7209 26.455 11.7909 27.7717 11.0409C29.0586 10.2909 30.4352 9.93094 31.8417 9.93094C34.5351 9.93094 36.6 10.7409 38.0664 12.3309C39.5328 13.9209 40.2511 16.2009 40.2511 19.1409V33.4209H36.1212V19.9809C36.1212 15.9009 34.3556 13.8609 30.8542 13.8609C29.1783 13.8609 27.7717 14.5809 26.6046 16.0209C25.4375 17.4609 24.8689 19.1409 24.8689 21.0609V33.4509H20.739V0.210938H24.8689ZM123.746 19.9809C123.806 19.9809 124.703 20.4609 126.469 21.3909C128.205 22.3509 129.133 22.8309 129.222 22.8309C129.282 22.8309 130.36 22.3809 132.395 21.4809C134.43 20.5809 135.657 20.1309 136.076 20.1309C136.524 20.1309 137.123 20.4009 137.871 20.9709V21.6309C137.811 21.6609 137.273 21.7209 136.285 21.8109C136.105 21.8409 134.968 22.1109 132.873 22.6809C132.305 22.8309 131.706 23.3409 131.048 24.2409C132.035 25.4409 133.681 26.7609 135.986 28.2309C137.093 28.9509 137.722 29.3709 137.811 29.4609C137.811 30.2109 137.332 30.6009 136.405 30.6009C136.046 30.6009 134.759 29.8209 132.574 28.2309C130.36 26.6409 129.192 25.8609 129.103 25.8609C127.606 25.8609 125.99 27.3009 124.225 30.2109C124.075 30.4509 123.985 30.7509 123.955 31.1409C123.925 31.6209 123.895 31.9209 123.866 32.0709C123.746 32.5209 123.387 32.8809 122.818 33.1209C122.788 32.9109 122.698 32.4909 122.519 31.8909C122.369 31.3509 122.309 30.9609 122.309 30.6609C122.309 29.9409 122.698 29.0409 123.506 28.0209C123.635 27.864 123.846 27.6361 124.141 27.338L124.378 27.1013C125.053 26.4352 126.064 25.4894 127.427 24.2709C126.948 23.7009 126.29 23.2209 125.392 22.8309L123.117 21.8109C122.938 21.3609 122.878 21.0609 122.878 20.9409C122.878 20.3109 123.177 19.9809 123.746 19.9809ZM162.141 20.1609C162.83 20.3409 163.159 20.8809 163.159 21.7809C163.159 22.9809 162.141 24.5109 160.106 26.3709C159.957 26.5209 158.461 27.8409 155.588 30.3309C155.767 30.5409 156.036 30.6309 156.396 30.6309H156.815C156.815 30.6009 158.401 30.4509 161.603 30.1809C163.159 30.0609 165.104 29.8809 167.468 29.6409C167.498 29.6409 167.678 29.5809 168.067 29.4609C168.456 29.3409 168.695 29.2809 168.785 29.2809C169.444 29.3409 170.102 29.5809 170.73 30.1209C170.132 30.3909 169.533 30.6009 168.935 30.8109C168.456 30.9609 167.558 31.1109 166.211 31.2309L163.458 31.4709C163.219 31.5609 162.8 31.7109 162.141 31.9209C160.496 32.3409 158.76 32.5509 156.904 32.5509C156.306 32.5509 155.528 32.4609 154.57 32.2509C153.433 32.0109 152.774 31.7109 152.535 31.3509V30.1209L156.904 26.7609C158.58 25.4709 159.897 24.2109 160.855 22.9209C160.705 22.5009 160.466 22.2609 160.136 22.2609H159.837C159.717 22.2609 158.85 22.4709 157.234 22.8309C155.618 23.2209 154.72 23.4009 154.51 23.4009C154.361 23.4009 153.942 23.2509 153.313 22.9809C153.313 22.9509 153.313 22.8309 153.283 22.5909C153.253 22.3809 153.253 22.2609 153.253 22.2009C153.253 21.9909 153.283 21.8109 153.343 21.6909L162.141 20.1609ZM116.444 28.5309C116.773 28.5309 117.072 28.7109 117.372 29.1009C117.701 29.4309 117.82 29.8209 117.82 30.1809C117.82 30.4809 117.521 30.8409 116.923 31.3209C116.354 31.7709 115.875 32.0109 115.546 32.0109C115.217 32.0109 114.678 31.8309 113.96 31.4409C114.05 31.0209 114.229 30.4809 114.499 29.7609C114.678 29.5209 115.007 29.2809 115.456 28.9809C115.905 28.6809 116.234 28.5309 116.444 28.5309ZM100.493 22.1109C98.8171 22.1109 97.4106 22.5309 96.3033 23.3709C95.196 24.1809 94.6274 25.2309 94.6274 26.4609C94.6274 27.5709 95.0763 28.5009 96.004 29.2509C96.9018 30.0009 97.9792 30.3609 99.2062 30.3609C100.942 30.3609 102.498 29.7009 103.845 28.3809C105.191 27.0609 105.88 25.5009 105.88 23.7009C104.593 22.6509 102.797 22.1109 100.493 22.1109ZM77.8387 13.8909C75.8336 13.8909 74.1577 14.6709 72.811 16.2009C71.4943 17.7609 70.8359 19.7109 70.8359 22.0809C70.8359 24.4809 71.4943 26.4609 72.811 28.0209C74.1577 29.4909 75.8336 30.2709 77.8387 30.2709C79.8138 30.2709 81.4897 29.4909 82.8065 27.9609C84.1532 26.4309 84.8415 24.4809 84.8415 22.0809C84.8415 19.7109 84.1831 17.7309 82.8065 16.2009C81.4598 14.6409 79.7839 13.8909 77.8387 13.8909ZM53.4786 13.8309C51.9224 13.8309 50.5757 14.3109 49.4684 15.3009C48.3312 16.3209 47.583 17.6409 47.2239 19.3209H59.8529C59.7332 17.7309 59.1047 16.4409 57.9974 15.3909C56.8602 14.3409 55.3639 13.8309 53.4786 13.8309Z" fill="black"/>
</svg>
